<svg xmlns="http://www.w3.org/2000/svg" fill="none" viewBox="21 16 99 53">
<g filter="url(#filter0_d_1_1244)">
<rect x="21" y="16" width="99" height="53" rx="6" fill="white"/>
</g>
<path opacity="0.5" d="M55.5182 36.06C55.2142 36.06 54.9302 36.004 54.6662 35.892C54.4022 35.78 54.1702 35.626 53.9702 35.43C53.7702 35.23 53.6122 35 53.4962 34.74C53.3842 34.48 53.3282 34.2 53.3282 33.9C53.3282 33.6 53.3842 33.32 53.4962 33.06C53.6122 32.8 53.7702 32.572 53.9702 32.376C54.1702 32.176 54.4022 32.02 54.6662 31.908C54.9302 31.796 55.2142 31.74 55.5182 31.74C55.7062 31.74 55.8882 31.76 56.0642 31.8C56.2402 31.84 56.4022 31.9 56.5502 31.98C56.6102 32.012 56.6542 32.056 56.6822 32.112C56.7142 32.164 56.7302 32.218 56.7302 32.274C56.7302 32.37 56.6982 32.456 56.6342 32.532C56.5702 32.608 56.4882 32.646 56.3882 32.646C56.3562 32.646 56.3222 32.642 56.2862 32.634C56.2542 32.626 56.2222 32.614 56.1902 32.598C56.0902 32.554 55.9842 32.52 55.8722 32.496C55.7602 32.472 55.6422 32.46 55.5182 32.46C55.2582 32.46 55.0202 32.526 54.8042 32.658C54.5922 32.786 54.4222 32.96 54.2942 33.18C54.1702 33.396 54.1082 33.636 54.1082 33.9C54.1082 34.16 54.1702 34.4 54.2942 34.62C54.4222 34.84 54.5922 35.016 54.8042 35.148C55.0202 35.276 55.2582 35.34 55.5182 35.34C55.6382 35.34 55.7702 35.328 55.9142 35.304C56.0582 35.28 56.1762 35.248 56.2682 35.208L56.2142 35.388V34.362L56.3162 34.452H55.6502C55.5462 34.452 55.4582 34.418 55.3862 34.35C55.3182 34.282 55.2842 34.196 55.2842 34.092C55.2842 33.988 55.3182 33.902 55.3862 33.834C55.4582 33.766 55.5462 33.732 55.6502 33.732H56.6342C56.7382 33.732 56.8242 33.768 56.8922 33.84C56.9602 33.908 56.9942 33.994 56.9942 34.098V35.37C56.9942 35.45 56.9742 35.516 56.9342 35.568C56.8982 35.62 56.8562 35.662 56.8082 35.694C56.6242 35.806 56.4222 35.896 56.2022 35.964C55.9862 36.028 55.7582 36.06 55.5182 36.06ZM58.208 36C58.096 36 57.996 35.966 57.908 35.898C57.82 35.826 57.776 35.738 57.776 35.634V32.166C57.776 32.062 57.81 31.976 57.878 31.908C57.95 31.836 58.038 31.8 58.142 31.8H59.87C60.078 31.8 60.272 31.856 60.452 31.968C60.636 32.076 60.784 32.228 60.896 32.424C61.008 32.616 61.064 32.838 61.064 33.09C61.064 33.242 61.032 33.39 60.968 33.534C60.908 33.678 60.824 33.808 60.716 33.924C60.612 34.04 60.494 34.13 60.362 34.194L60.368 34.056C60.48 34.116 60.572 34.188 60.644 34.272C60.72 34.352 60.778 34.44 60.818 34.536C60.862 34.628 60.888 34.728 60.896 34.836C60.912 34.936 60.922 35.024 60.926 35.1C60.934 35.176 60.946 35.24 60.962 35.292C60.982 35.344 61.018 35.384 61.07 35.412C61.158 35.464 61.212 35.54 61.232 35.64C61.256 35.736 61.234 35.822 61.166 35.898C61.122 35.95 61.066 35.984 60.998 36C60.93 36.012 60.862 36.012 60.794 36C60.726 35.984 60.67 35.964 60.626 35.94C60.558 35.9 60.49 35.842 60.422 35.766C60.354 35.686 60.298 35.58 60.254 35.448C60.214 35.316 60.194 35.146 60.194 34.938C60.194 34.87 60.182 34.808 60.158 34.752C60.134 34.692 60.1 34.642 60.056 34.602C60.012 34.558 59.956 34.526 59.888 34.506C59.82 34.482 59.74 34.47 59.648 34.47H58.436L58.526 34.332V35.634C58.526 35.738 58.498 35.826 58.442 35.898C58.386 35.966 58.308 36 58.208 36ZM58.442 33.852H59.84C59.912 33.852 59.982 33.82 60.05 33.756C60.118 33.688 60.174 33.598 60.218 33.486C60.262 33.37 60.284 33.244 60.284 33.108C60.284 32.932 60.236 32.786 60.14 32.67C60.048 32.55 59.948 32.49 59.84 32.49H58.454L58.526 32.298V33.996L58.442 33.852ZM62.3211 31.8H64.3311C64.4351 31.8 64.5211 31.834 64.5891 31.902C64.6611 31.966 64.6971 32.05 64.6971 32.154C64.6971 32.254 64.6611 32.336 64.5891 32.4C64.5211 32.46 64.4351 32.49 64.3311 32.49H62.6511L62.7051 32.388V33.558L62.6571 33.51H64.0611C64.1651 33.51 64.2511 33.544 64.3191 33.612C64.3911 33.676 64.4271 33.76 64.4271 33.864C64.4271 33.964 64.3911 34.046 64.3191 34.11C64.2511 34.17 64.1651 34.2 64.0611 34.2H62.6751L62.7051 34.152V35.364L62.6571 35.31H64.3311C64.4351 35.31 64.5211 35.346 64.5891 35.418C64.6611 35.486 64.6971 35.566 64.6971 35.658C64.6971 35.758 64.6611 35.84 64.5891 35.904C64.5211 35.968 64.4351 36 64.3311 36H62.3211C62.2171 36 62.1291 35.966 62.0571 35.898C61.9891 35.826 61.9551 35.738 61.9551 35.634V32.166C61.9551 32.062 61.9891 31.976 62.0571 31.908C62.1291 31.836 62.2171 31.8 62.3211 31.8ZM66.9907 32.742L65.6947 35.79C65.6667 35.866 65.6227 35.926 65.5627 35.97C65.5067 36.01 65.4447 36.03 65.3767 36.03C65.2687 36.03 65.1887 36 65.1367 35.94C65.0847 35.88 65.0587 35.806 65.0587 35.718C65.0587 35.682 65.0647 35.644 65.0767 35.604L66.5707 32.016C66.6027 31.936 66.6507 31.874 66.7147 31.83C66.7827 31.786 66.8547 31.768 66.9307 31.776C67.0027 31.776 67.0687 31.798 67.1287 31.842C67.1927 31.882 67.2387 31.94 67.2667 32.016L68.7427 35.532C68.7627 35.584 68.7727 35.632 68.7727 35.676C68.7727 35.784 68.7367 35.87 68.6647 35.934C68.5967 35.998 68.5207 36.03 68.4367 36.03C68.3647 36.03 68.2987 36.008 68.2387 35.964C68.1827 35.92 68.1387 35.86 68.1067 35.784L66.8167 32.778L66.9907 32.742ZM65.8807 35.058L66.2107 34.368H67.8307L67.9447 35.058H65.8807ZM70.4639 36C70.3519 36 70.2599 35.966 70.1879 35.898C70.1159 35.826 70.0799 35.738 70.0799 35.634V32.154H70.8599V35.634C70.8599 35.738 70.8219 35.826 70.7459 35.898C70.6739 35.966 70.5799 36 70.4639 36ZM69.1379 32.49C69.0339 32.49 68.9459 32.458 68.8739 32.394C68.8059 32.33 68.7719 32.246 68.7719 32.142C68.7719 32.038 68.8059 31.956 68.8739 31.896C68.9459 31.832 69.0339 31.8 69.1379 31.8H71.8019C71.9059 31.8 71.9919 31.832 72.0599 31.896C72.1319 31.96 72.1679 32.044 72.1679 32.148C72.1679 32.252 72.1319 32.336 72.0599 32.4C71.9919 32.46 71.9059 32.49 71.8019 32.49H69.1379ZM76.3334 31.8C76.5414 31.8 76.7354 31.86 76.9154 31.98C77.0994 32.1 77.2474 32.262 77.3594 32.466C77.4714 32.67 77.5274 32.898 77.5274 33.15C77.5274 33.398 77.4714 33.624 77.3594 33.828C77.2474 34.032 77.0994 34.196 76.9154 34.32C76.7354 34.44 76.5414 34.5 76.3334 34.5H75.2294L75.2894 34.392V35.634C75.2894 35.738 75.2574 35.826 75.1934 35.898C75.1294 35.966 75.0454 36 74.9414 36C74.8414 36 74.7594 35.966 74.6954 35.898C74.6314 35.826 74.5994 35.738 74.5994 35.634V32.166C74.5994 32.062 74.6334 31.976 74.7014 31.908C74.7734 31.836 74.8614 31.8 74.9654 31.8H76.3334ZM76.3334 33.816C76.4094 33.816 76.4834 33.784 76.5554 33.72C76.6274 33.656 76.6874 33.574 76.7354 33.474C76.7834 33.37 76.8074 33.262 76.8074 33.15C76.8074 33.034 76.7834 32.926 76.7354 32.826C76.6874 32.726 76.6274 32.646 76.5554 32.586C76.4834 32.522 76.4094 32.49 76.3334 32.49H75.2174L75.2894 32.382V33.912L75.2234 33.816H76.3334ZM78.7066 36C78.5946 36 78.4946 35.966 78.4066 35.898C78.3186 35.826 78.2746 35.738 78.2746 35.634V32.166C78.2746 32.062 78.3086 31.976 78.3766 31.908C78.4486 31.836 78.5366 31.8 78.6406 31.8H80.3686C80.5766 31.8 80.7706 31.856 80.9506 31.968C81.1346 32.076 81.2826 32.228 81.3946 32.424C81.5066 32.616 81.5626 32.838 81.5626 33.09C81.5626 33.242 81.5306 33.39 81.4666 33.534C81.4066 33.678 81.3226 33.808 81.2146 33.924C81.1106 34.04 80.9926 34.13 80.8606 34.194L80.8666 34.056C80.9786 34.116 81.0706 34.188 81.1426 34.272C81.2186 34.352 81.2766 34.44 81.3166 34.536C81.3606 34.628 81.3866 34.728 81.3946 34.836C81.4106 34.936 81.4206 35.024 81.4246 35.1C81.4326 35.176 81.4446 35.24 81.4606 35.292C81.4806 35.344 81.5166 35.384 81.5686 35.412C81.6566 35.464 81.7106 35.54 81.7306 35.64C81.7546 35.736 81.7326 35.822 81.6646 35.898C81.6206 35.95 81.5646 35.984 81.4966 36C81.4286 36.012 81.3606 36.012 81.2926 36C81.2246 35.984 81.1686 35.964 81.1246 35.94C81.0566 35.9 80.9886 35.842 80.9206 35.766C80.8526 35.686 80.7966 35.58 80.7526 35.448C80.7126 35.316 80.6926 35.146 80.6926 34.938C80.6926 34.87 80.6806 34.808 80.6566 34.752C80.6326 34.692 80.5986 34.642 80.5546 34.602C80.5106 34.558 80.4546 34.526 80.3866 34.506C80.3186 34.482 80.2386 34.47 80.1466 34.47H78.9346L79.0246 34.332V35.634C79.0246 35.738 78.9966 35.826 78.9406 35.898C78.8846 35.966 78.8066 36 78.7066 36ZM78.9406 33.852H80.3386C80.4106 33.852 80.4806 33.82 80.5486 33.756C80.6166 33.688 80.6726 33.598 80.7166 33.486C80.7606 33.37 80.7826 33.244 80.7826 33.108C80.7826 32.932 80.7346 32.786 80.6386 32.67C80.5466 32.55 80.4466 32.49 80.3386 32.49H78.9526L79.0246 32.298V33.996L78.9406 33.852ZM86.2592 33.9C86.2592 34.2 86.2092 34.48 86.1092 34.74C86.0092 35 85.8672 35.23 85.6832 35.43C85.5032 35.626 85.2872 35.78 85.0352 35.892C84.7872 36.004 84.5152 36.06 84.2192 36.06C83.9232 36.06 83.6512 36.004 83.4032 35.892C83.1552 35.78 82.9392 35.626 82.7552 35.43C82.5752 35.23 82.4352 35 82.3352 34.74C82.2352 34.48 82.1852 34.2 82.1852 33.9C82.1852 33.6 82.2352 33.32 82.3352 33.06C82.4352 32.8 82.5752 32.572 82.7552 32.376C82.9392 32.176 83.1552 32.02 83.4032 31.908C83.6512 31.796 83.9232 31.74 84.2192 31.74C84.5152 31.74 84.7872 31.796 85.0352 31.908C85.2872 32.02 85.5032 32.176 85.6832 32.376C85.8672 32.572 86.0092 32.8 86.1092 33.06C86.2092 33.32 86.2592 33.6 86.2592 33.9ZM85.4792 33.9C85.4792 33.632 85.4252 33.39 85.3172 33.174C85.2092 32.954 85.0612 32.78 84.8732 32.652C84.6852 32.524 84.4672 32.46 84.2192 32.46C83.9712 32.46 83.7532 32.524 83.5652 32.652C83.3772 32.78 83.2292 32.952 83.1212 33.168C83.0172 33.384 82.9652 33.628 82.9652 33.9C82.9652 34.168 83.0172 34.412 83.1212 34.632C83.2292 34.848 83.3772 35.02 83.5652 35.148C83.7532 35.276 83.9712 35.34 84.2192 35.34C84.4672 35.34 84.6852 35.276 84.8732 35.148C85.0612 35.02 85.2092 34.848 85.3172 34.632C85.4252 34.412 85.4792 34.168 85.4792 33.9ZM87.898 36.06C87.67 36.06 87.458 36.014 87.262 35.922C87.066 35.83 86.906 35.698 86.782 35.526C86.734 35.454 86.71 35.384 86.71 35.316C86.71 35.216 86.748 35.132 86.824 35.064C86.904 34.996 86.982 34.962 87.058 34.962C87.118 34.962 87.176 34.98 87.232 35.016C87.292 35.052 87.346 35.094 87.394 35.142C87.474 35.214 87.552 35.266 87.628 35.298C87.708 35.326 87.798 35.34 87.898 35.34C88.018 35.34 88.13 35.31 88.234 35.25C88.338 35.19 88.422 35.11 88.486 35.01C88.55 34.91 88.582 34.802 88.582 34.686V32.166C88.582 32.062 88.62 31.976 88.696 31.908C88.772 31.836 88.86 31.8 88.96 31.8C89.072 31.8 89.162 31.836 89.23 31.908C89.298 31.976 89.332 32.062 89.332 32.166V34.686C89.332 34.93 89.268 35.156 89.14 35.364C89.012 35.572 88.84 35.74 88.624 35.868C88.408 35.996 88.166 36.06 87.898 36.06ZM90.6566 31.8H92.6666C92.7706 31.8 92.8566 31.834 92.9246 31.902C92.9966 31.966 93.0326 32.05 93.0326 32.154C93.0326 32.254 92.9966 32.336 92.9246 32.4C92.8566 32.46 92.7706 32.49 92.6666 32.49H90.9866L91.0406 32.388V33.558L90.9926 33.51H92.3966C92.5006 33.51 92.5866 33.544 92.6546 33.612C92.7266 33.676 92.7626 33.76 92.7626 33.864C92.7626 33.964 92.7266 34.046 92.6546 34.11C92.5866 34.17 92.5006 34.2 92.3966 34.2H91.0106L91.0406 34.152V35.364L90.9926 35.31H92.6666C92.7706 35.31 92.8566 35.346 92.9246 35.418C92.9966 35.486 93.0326 35.566 93.0326 35.658C93.0326 35.758 92.9966 35.84 92.9246 35.904C92.8566 35.968 92.7706 36 92.6666 36H90.6566C90.5526 36 90.4646 35.966 90.3926 35.898C90.3246 35.826 90.2906 35.738 90.2906 35.634V32.166C90.2906 32.062 90.3246 31.976 90.3926 31.908C90.4646 31.836 90.5526 31.8 90.6566 31.8ZM96.7242 32.004C96.8282 32.056 96.8882 32.138 96.9042 32.25C96.9242 32.362 96.8962 32.464 96.8202 32.556C96.7682 32.628 96.7002 32.668 96.6162 32.676C96.5362 32.684 96.4542 32.668 96.3702 32.628C96.2742 32.584 96.1722 32.55 96.0642 32.526C95.9602 32.502 95.8502 32.49 95.7342 32.49C95.5182 32.49 95.3242 32.524 95.1522 32.592C94.9842 32.66 94.8402 32.758 94.7202 32.886C94.6002 33.01 94.5082 33.158 94.4442 33.33C94.3842 33.502 94.3542 33.692 94.3542 33.9C94.3542 34.144 94.3882 34.356 94.4562 34.536C94.5282 34.716 94.6262 34.866 94.7502 34.986C94.8742 35.106 95.0202 35.196 95.1882 35.256C95.3562 35.312 95.5382 35.34 95.7342 35.34C95.8422 35.34 95.9502 35.33 96.0582 35.31C96.1662 35.29 96.2702 35.254 96.3702 35.202C96.4542 35.162 96.5362 35.148 96.6162 35.16C96.7002 35.172 96.7702 35.214 96.8262 35.286C96.9062 35.386 96.9342 35.49 96.9102 35.598C96.8902 35.702 96.8302 35.778 96.7302 35.826C96.6262 35.878 96.5182 35.922 96.4062 35.958C96.2982 35.99 96.1882 36.014 96.0762 36.03C95.9642 36.05 95.8502 36.06 95.7342 36.06C95.4462 36.06 95.1722 36.014 94.9122 35.922C94.6562 35.83 94.4262 35.694 94.2222 35.514C94.0222 35.334 93.8642 35.11 93.7482 34.842C93.6322 34.57 93.5742 34.256 93.5742 33.9C93.5742 33.592 93.6262 33.308 93.7302 33.048C93.8382 32.788 93.9882 32.564 94.1802 32.376C94.3762 32.184 94.6062 32.036 94.8702 31.932C95.1342 31.824 95.4222 31.77 95.7342 31.77C95.9102 31.77 96.0822 31.79 96.2502 31.83C96.4182 31.87 96.5762 31.928 96.7242 32.004ZM99.0279 36C98.9159 36 98.8239 35.966 98.7519 35.898C98.6799 35.826 98.6439 35.738 98.6439 35.634V32.154H99.4239V35.634C99.4239 35.738 99.3859 35.826 99.3099 35.898C99.2379 35.966 99.1439 36 99.0279 36ZM97.7019 32.49C97.5979 32.49 97.5099 32.458 97.4379 32.394C97.3699 32.33 97.3359 32.246 97.3359 32.142C97.3359 32.038 97.3699 31.956 97.4379 31.896C97.5099 31.832 97.5979 31.8 97.7019 31.8H100.366C100.47 31.8 100.556 31.832 100.624 31.896C100.696 31.96 100.732 32.044 100.732 32.148C100.732 32.252 100.696 32.336 100.624 32.4C100.556 32.46 100.47 32.49 100.366 32.49H97.7019Z" fill="#1D1D1D"/>
<path d="M40.7567 56.12C40.1007 56.12 39.5367 56.028 39.0647 55.844C38.6007 55.652 38.2407 55.376 37.9847 55.016C37.7367 54.656 37.6127 54.224 37.6127 53.72C37.6127 53.32 37.6927 52.968 37.8527 52.664C38.0207 52.352 38.2487 52.1 38.5367 51.908C38.8247 51.716 39.1527 51.596 39.5207 51.548V51.8C39.0087 51.688 38.5967 51.444 38.2847 51.068C37.9807 50.684 37.8287 50.228 37.8287 49.7C37.8287 49.22 37.9487 48.812 38.1887 48.476C38.4287 48.132 38.7687 47.872 39.2087 47.696C39.6487 47.512 40.1647 47.42 40.7567 47.42C41.3567 47.42 41.8767 47.512 42.3167 47.696C42.7567 47.872 43.0967 48.132 43.3367 48.476C43.5767 48.812 43.6967 49.22 43.6967 49.7C43.6967 50.052 43.6247 50.376 43.4807 50.672C43.3447 50.968 43.1487 51.212 42.8927 51.404C42.6447 51.596 42.3527 51.724 42.0167 51.788V51.548C42.5767 51.628 43.0287 51.864 43.3727 52.256C43.7247 52.64 43.9007 53.128 43.9007 53.72C43.9007 54.224 43.7727 54.656 43.5167 55.016C43.2687 55.376 42.9087 55.652 42.4367 55.844C41.9727 56.028 41.4127 56.12 40.7567 56.12ZM40.7567 54.92C41.3247 54.92 41.7527 54.812 42.0407 54.596C42.3287 54.372 42.4727 54.044 42.4727 53.612C42.4727 53.18 42.3287 52.856 42.0407 52.64C41.7527 52.424 41.3247 52.316 40.7567 52.316C40.1967 52.316 39.7687 52.424 39.4727 52.64C39.1847 52.856 39.0407 53.18 39.0407 53.612C39.0407 54.044 39.1847 54.372 39.4727 54.596C39.7687 54.812 40.1967 54.92 40.7567 54.92ZM40.7567 51.116C41.0767 51.116 41.3487 51.068 41.5727 50.972C41.7967 50.868 41.9687 50.72 42.0887 50.528C42.2087 50.336 42.2687 50.112 42.2687 49.856C42.2687 49.472 42.1327 49.172 41.8607 48.956C41.5967 48.732 41.2287 48.62 40.7567 48.62C40.2847 48.62 39.9167 48.732 39.6527 48.956C39.3887 49.172 39.2567 49.472 39.2567 49.856C39.2567 50.248 39.3887 50.556 39.6527 50.78C39.9167 51.004 40.2847 51.116 40.7567 51.116ZM48.072 56.12C47.072 56.12 46.308 55.744 45.78 54.992C45.252 54.232 44.988 53.152 44.988 51.752C44.988 50.808 45.104 50.016 45.336 49.376C45.576 48.728 45.924 48.24 46.38 47.912C46.844 47.584 47.408 47.42 48.072 47.42C49.08 47.42 49.844 47.788 50.364 48.524C50.892 49.26 51.156 50.332 51.156 51.74C51.156 52.676 51.036 53.472 50.796 54.128C50.564 54.776 50.22 55.272 49.764 55.616C49.308 55.952 48.744 56.12 48.072 56.12ZM48.072 54.86C48.616 54.86 49.016 54.608 49.272 54.104C49.536 53.6 49.668 52.812 49.668 51.74C49.668 50.668 49.536 49.892 49.272 49.412C49.016 48.924 48.616 48.68 48.072 48.68C47.536 48.68 47.136 48.924 46.872 49.412C46.608 49.892 46.476 50.668 46.476 51.74C46.476 52.812 46.608 53.6 46.872 54.104C47.136 54.608 47.536 54.86 48.072 54.86ZM55.3873 56.12C54.3873 56.12 53.6233 55.744 53.0953 54.992C52.5673 54.232 52.3033 53.152 52.3033 51.752C52.3033 50.808 52.4193 50.016 52.6513 49.376C52.8913 48.728 53.2393 48.24 53.6953 47.912C54.1593 47.584 54.7233 47.42 55.3873 47.42C56.3953 47.42 57.1593 47.788 57.6793 48.524C58.2073 49.26 58.4713 50.332 58.4713 51.74C58.4713 52.676 58.3513 53.472 58.1113 54.128C57.8793 54.776 57.5353 55.272 57.0793 55.616C56.6233 55.952 56.0593 56.12 55.3873 56.12ZM55.3873 54.86C55.9313 54.86 56.3313 54.608 56.5873 54.104C56.8513 53.6 56.9833 52.812 56.9833 51.74C56.9833 50.668 56.8513 49.892 56.5873 49.412C56.3313 48.924 55.9313 48.68 55.3873 48.68C54.8513 48.68 54.4513 48.924 54.1873 49.412C53.9233 49.892 53.7913 50.668 53.7913 51.74C53.7913 52.812 53.9233 53.6 54.1873 54.104C54.4513 54.608 54.8513 54.86 55.3873 54.86ZM62.7027 55.616C62.5267 55.616 62.3907 55.568 62.2947 55.472C62.1987 55.368 62.1507 55.228 62.1507 55.052V53.084H60.2187C60.0507 53.084 59.9187 53.04 59.8227 52.952C59.7267 52.856 59.6787 52.724 59.6787 52.556C59.6787 52.388 59.7267 52.26 59.8227 52.172C59.9187 52.076 60.0507 52.028 60.2187 52.028H62.1507V50.12C62.1507 49.944 62.1987 49.808 62.2947 49.712C62.3907 49.616 62.5307 49.568 62.7147 49.568C62.8907 49.568 63.0227 49.616 63.1107 49.712C63.2067 49.808 63.2547 49.944 63.2547 50.12V52.028H65.1867C65.3627 52.028 65.4947 52.076 65.5827 52.172C65.6787 52.26 65.7267 52.388 65.7267 52.556C65.7267 52.724 65.6787 52.856 65.5827 52.952C65.4947 53.04 65.3627 53.084 65.1867 53.084H63.2547V55.052C63.2547 55.228 63.2067 55.368 63.1107 55.472C63.0227 55.568 62.8867 55.616 62.7027 55.616ZM71.286 56C71.11 56 70.974 55.956 70.878 55.868C70.79 55.772 70.746 55.636 70.746 55.46V48.08C70.746 47.904 70.79 47.772 70.878 47.684C70.974 47.588 71.11 47.54 71.286 47.54H73.602C74.97 47.54 76.026 47.9 76.77 48.62C77.514 49.34 77.886 50.388 77.886 51.764C77.886 52.452 77.79 53.06 77.598 53.588C77.414 54.108 77.138 54.548 76.77 54.908C76.402 55.268 75.954 55.54 75.426 55.724C74.898 55.908 74.29 56 73.602 56H71.286ZM71.73 55.16H73.53C74.09 55.16 74.574 55.088 74.982 54.944C75.398 54.8 75.742 54.588 76.014 54.308C76.294 54.028 76.502 53.676 76.638 53.252C76.774 52.82 76.842 52.324 76.842 51.764C76.842 50.636 76.566 49.792 76.014 49.232C75.462 48.664 74.634 48.38 73.53 48.38H71.73V55.16ZM82.0643 56.108C81.4963 56.108 81.0043 55.984 80.5883 55.736C80.1723 55.488 79.8483 55.14 79.6163 54.692C79.3923 54.236 79.2803 53.7 79.2803 53.084C79.2803 52.62 79.3443 52.204 79.4723 51.836C79.6003 51.46 79.7883 51.14 80.0363 50.876C80.2843 50.612 80.5763 50.412 80.9123 50.276C81.2563 50.132 81.6403 50.06 82.0643 50.06C82.6323 50.06 83.1243 50.184 83.5403 50.432C83.9563 50.68 84.2763 51.032 84.5003 51.488C84.7323 51.936 84.8483 52.468 84.8483 53.084C84.8483 53.548 84.7843 53.964 84.6563 54.332C84.5283 54.7 84.3403 55.02 84.0923 55.292C83.8443 55.556 83.5483 55.76 83.2043 55.904C82.8683 56.04 82.4883 56.108 82.0643 56.108ZM82.0643 55.328C82.4243 55.328 82.7403 55.24 83.0123 55.064C83.2843 54.888 83.4923 54.632 83.6363 54.296C83.7883 53.96 83.8643 53.556 83.8643 53.084C83.8643 52.356 83.7003 51.8 83.3723 51.416C83.0523 51.032 82.6163 50.84 82.0643 50.84C81.6963 50.84 81.3763 50.928 81.1043 51.104C80.8403 51.272 80.6323 51.524 80.4803 51.86C80.3363 52.188 80.2643 52.596 80.2643 53.084C80.2643 53.804 80.4283 54.36 80.7563 54.752C81.0843 55.136 81.5203 55.328 82.0643 55.328ZM86.9083 56.084C86.7483 56.084 86.6283 56.04 86.5483 55.952C86.4683 55.864 86.4283 55.74 86.4283 55.58V50.576C86.4283 50.416 86.4683 50.296 86.5483 50.216C86.6283 50.128 86.7443 50.084 86.8963 50.084C87.0483 50.084 87.1643 50.128 87.2443 50.216C87.3323 50.296 87.3763 50.416 87.3763 50.576V51.608L87.2443 51.464C87.4123 51 87.6843 50.652 88.0603 50.42C88.4443 50.18 88.8843 50.06 89.3803 50.06C89.8443 50.06 90.2283 50.144 90.5323 50.312C90.8443 50.48 91.0763 50.736 91.2283 51.08C91.3803 51.416 91.4563 51.844 91.4563 52.364V55.58C91.4563 55.74 91.4123 55.864 91.3243 55.952C91.2443 56.04 91.1283 56.084 90.9763 56.084C90.8163 56.084 90.6923 56.04 90.6043 55.952C90.5243 55.864 90.4843 55.74 90.4843 55.58V52.424C90.4843 51.88 90.3763 51.484 90.1603 51.236C89.9523 50.98 89.6163 50.852 89.1523 50.852C88.6163 50.852 88.1883 51.02 87.8683 51.356C87.5563 51.684 87.4003 52.124 87.4003 52.676V55.58C87.4003 55.916 87.2363 56.084 86.9083 56.084ZM95.9966 56.108C95.3806 56.108 94.8486 55.988 94.4006 55.748C93.9606 55.5 93.6166 55.152 93.3686 54.704C93.1286 54.256 93.0086 53.72 93.0086 53.096C93.0086 52.488 93.1286 51.96 93.3686 51.512C93.6086 51.056 93.9366 50.7 94.3526 50.444C94.7766 50.188 95.2646 50.06 95.8166 50.06C96.2086 50.06 96.5606 50.128 96.8726 50.264C97.1846 50.392 97.4486 50.58 97.6646 50.828C97.8886 51.076 98.0566 51.376 98.1686 51.728C98.2886 52.08 98.3486 52.476 98.3486 52.916C98.3486 53.044 98.3126 53.14 98.2406 53.204C98.1686 53.26 98.0646 53.288 97.9286 53.288H93.7526V52.652H97.7006L97.5086 52.808C97.5086 52.376 97.4446 52.012 97.3166 51.716C97.1886 51.412 97.0006 51.18 96.7526 51.02C96.5126 50.86 96.2086 50.78 95.8406 50.78C95.4326 50.78 95.0846 50.876 94.7966 51.068C94.5166 51.252 94.3046 51.512 94.1606 51.848C94.0166 52.176 93.9446 52.56 93.9446 53V53.072C93.9446 53.808 94.1206 54.368 94.4726 54.752C94.8326 55.136 95.3406 55.328 95.9966 55.328C96.2686 55.328 96.5366 55.292 96.8006 55.22C97.0726 55.148 97.3366 55.028 97.5926 54.86C97.7046 54.788 97.8046 54.756 97.8926 54.764C97.9886 54.764 98.0646 54.792 98.1206 54.848C98.1766 54.896 98.2126 54.96 98.2286 55.04C98.2526 55.112 98.2446 55.192 98.2046 55.28C98.1726 55.368 98.1046 55.444 98.0006 55.508C97.7366 55.7 97.4246 55.848 97.0646 55.952C96.7046 56.056 96.3486 56.108 95.9966 56.108Z" fill="#1D1D1D"/>
<path d="M41.9987 25.3333L44.0587 29.5066L48.6654 30.1799L45.332 33.4266L46.1187 38.0133L41.9987 35.8466L37.8787 38.0133L38.6654 33.4266L35.332 30.1799L39.9387 29.5066L41.9987 25.3333Z" fill="#F8BD38"/>
<defs>
<filter id="filter0_d_1_1244" x="-3" y="0" width="147" height="101" filterUnits="userSpaceOnUse" color-interpolation-filters="sRGB">
<feFlood flood-opacity="0" result="BackgroundImageFix"/>
<feColorMatrix in="SourceAlpha" type="matrix" values="0 0 0 0 0 0 0 0 0 0 0 0 0 0 0 0 0 0 127 0" result="hardAlpha"/>
<feOffset dy="8"/>
<feGaussianBlur stdDeviation="12"/>
<feComposite in2="hardAlpha" operator="out"/>
<feColorMatrix type="matrix" values="0 0 0 0 0 0 0 0 0 0 0 0 0 0 0 0 0 0 0.15 0"/>
<feBlend mode="normal" in2="BackgroundImageFix" result="effect1_dropShadow_1_1244"/>
<feBlend mode="normal" in="SourceGraphic" in2="effect1_dropShadow_1_1244" result="shape"/>
</filter>
</defs>
</svg>